<svg version="1.1" xmlns="http://www.w3.org/2000/svg" xmlns:xlink="http://www.w3.org/1999/xlink" width="875" height="638"><defs/><g><g transform="translate(-30,-38) scale(1,1)"><path fill="#ffffff" stroke="none" d="M 86.79509250710227 121.68 C 86.79509250710227 116.886167936 90.68093483204773 113 95.474365234375 113 C 100.26779563670227 113 104.15363796164773 116.886167936 104.15363796164773 121.68 C 104.15363796164773 126.473832064 100.26779563670227 130.36 95.474365234375 130.36 C 90.68093483204773 130.36 86.79509250710227 126.473832064 86.79509250710227 121.68 Z"/></g><g transform="translate(-30,-38) scale(1,1)"><path fill="none" stroke="#000000" d="M 86.79509250710227 121.68 C 86.79509250710227 116.886167936 90.68093483204773 113 95.474365234375 113 C 100.26779563670227 113 104.15363796164773 116.886167936 104.15363796164773 121.68 C 104.15363796164773 126.473832064 100.26779563670227 130.36 95.474365234375 130.36 C 90.68093483204773 130.36 86.79509250710227 126.473832064 86.79509250710227 121.68 Z" stroke-miterlimit="10"/></g><g transform="translate(-30,-38) scale(1,1)"><path fill="none" stroke="#000000" d="M 95.474365234375 130.36 L 95.474365234375 147.64" stroke-miterlimit="10"/></g><g transform="translate(-30,-38) scale(1,1)"><path fill="none" stroke="#000000" d="M 86.28454705255682 136.84 L 104.66418341619318 136.84" stroke-miterlimit="10"/></g><g transform="translate(-30,-38) scale(1,1)"><path fill="none" stroke="#000000" d="M 95.474365234375 147.64 L 82.71072887073863 165" stroke-miterlimit="10"/></g><g transform="translate(-30,-38) scale(1,1)"><path fill="none" stroke="#000000" d="M 95.474365234375 147.64 L 108.23800159801137 165" stroke-miterlimit="10"/></g><g transform="translate(-30,-38) scale(1,1)"><g><path fill="none" stroke="none"/><text fill="#000000" stroke="none" font-family="Arial" font-size="13px" font-style="normal" font-weight="bold" text-decoration="none" x="70.661376953125" y="185.5">Visitante</text></g></g><g transform="translate(-30,-38) scale(1,1)"><path fill="#ffd8d8" stroke="none" d="M 84.02116672585227 305.68 C 84.02116672585227 300.886167936 87.90700905079773 297 92.700439453125 297 C 97.49386985545227 297 101.37971218039773 300.886167936 101.37971218039773 305.68 C 101.37971218039773 310.473832064 97.49386985545227 314.36 92.700439453125 314.36 C 87.90700905079773 314.36 84.02116672585227 310.473832064 84.02116672585227 305.68 Z"/></g><g transform="translate(-30,-38) scale(1,1)"><path fill="none" stroke="#000000" d="M 84.02116672585227 305.68 C 84.02116672585227 300.886167936 87.90700905079773 297 92.700439453125 297 C 97.49386985545227 297 101.37971218039773 300.886167936 101.37971218039773 305.68 C 101.37971218039773 310.473832064 97.49386985545227 314.36 92.700439453125 314.36 C 87.90700905079773 314.36 84.02116672585227 310.473832064 84.02116672585227 305.68 Z" stroke-miterlimit="10"/></g><g transform="translate(-30,-38) scale(1,1)"><path fill="none" stroke="#000000" d="M 92.700439453125 314.36 L 92.700439453125 331.64" stroke-miterlimit="10"/></g><g transform="translate(-30,-38) scale(1,1)"><path fill="none" stroke="#000000" d="M 83.51062127130682 320.84 L 101.89025763494318 320.84" stroke-miterlimit="10"/></g><g transform="translate(-30,-38) scale(1,1)"><path fill="none" stroke="#000000" d="M 92.700439453125 331.64 L 79.93680308948863 349" stroke-miterlimit="10"/></g><g transform="translate(-30,-38) scale(1,1)"><path fill="none" stroke="#000000" d="M 92.700439453125 331.64 L 105.46407581676137 349" stroke-miterlimit="10"/></g><g transform="translate(-30,-38) scale(1,1)"><g><path fill="none" stroke="none"/><text fill="#000000" stroke="none" font-family="Arial" font-size="13px" font-style="normal" font-weight="bold" text-decoration="none" x="70.302734375" y="369.5">Usuario</text></g></g><g transform="translate(-30,-38) scale(1,1)"><path fill="none" stroke="#000000" d="M 93 295 L 94 192" stroke-miterlimit="10"/></g><g transform="translate(-30,-38) scale(1,1)"><path fill="#FFFFFF" stroke="none" d="M 102.22131455990757 212.4061262102108 L 94 192 L 85.38403705458974 212.24265749656692"/></g><g transform="translate(-30,-38) scale(1,1)"><path fill="none" stroke="#000000" d="M 102.22131455990757 212.4061262102108 L 94 192 L 85.38403705458974 212.24265749656692 L 102.22131455990757 212.4061262102108" stroke-miterlimit="10"/></g><g transform="translate(-30,-38) scale(1,1)"><path fill="#C0C0C0" stroke="none" d="M 247 144 C 247 134.6111584 277.4446336 127 315 127 C 352.5553664 127 383 134.6111584 383 144 C 383 153.3888416 352.5553664 161 315 161 C 277.4446336 161 247 153.3888416 247 144 Z" opacity="0.2"/></g><g transform="translate(-30,-38) scale(1,1)"><path fill="#c6c6c6" stroke="none" d="M 240 137 C 240 127.6111584 270.4446336 120 308 120 C 345.5553664 120 376 127.6111584 376 137 C 376 146.3888416 345.5553664 154 308 154 C 270.4446336 154 240 146.3888416 240 137 Z"/></g><g transform="translate(-30,-38) scale(1,1)"><path fill="none" stroke="#000000" d="M 240 137 C 240 127.6111584 270.4446336 120 308 120 C 345.5553664 120 376 127.6111584 376 137 C 376 146.3888416 345.5553664 154 308 154 C 270.4446336 154 240 146.3888416 240 137 Z" stroke-miterlimit="10"/></g><g transform="translate(-30,-38) scale(1,1)"><g><path fill="none" stroke="none"/><text fill="#000000" stroke="none" font-family="Arial" font-size="13px" font-style="normal" font-weight="bold" text-decoration="none" x="267.892333984375" y="144">Pantalla inicio</text></g></g><g transform="translate(-30,-38) scale(1,1)"><path fill="#C0C0C0" stroke="none" d="M 327 216 C 327 206.6111584 356.3253456 199 392.5 199 C 428.6746544 199 458 206.6111584 458 216 C 458 225.3888416 428.6746544 233 392.5 233 C 356.3253456 233 327 225.3888416 327 216 Z" opacity="0.2"/></g><g transform="translate(-30,-38) scale(1,1)"><path fill="#e2e2e2" stroke="none" d="M 320 209 C 320 199.6111584 349.3253456 192 385.5 192 C 421.6746544 192 451 199.6111584 451 209 C 451 218.3888416 421.6746544 226 385.5 226 C 349.3253456 226 320 218.3888416 320 209 Z"/></g><g transform="translate(-30,-38) scale(1,1)"><path fill="none" stroke="#000000" d="M 320 209 C 320 199.6111584 349.3253456 192 385.5 192 C 421.6746544 192 451 199.6111584 451 209 C 451 218.3888416 421.6746544 226 385.5 226 C 349.3253456 226 320 218.3888416 320 209 Z" stroke-miterlimit="10"/></g><g transform="translate(-30,-38) scale(1,1)"><g><path fill="none" stroke="none"/><text fill="#000000" stroke="none" font-family="Arial" font-size="13px" font-style="normal" font-weight="bold" text-decoration="none" x="347.207763671875" y="216">Registro libre</text></g></g><g transform="translate(-30,-38) scale(1,1)"><path fill="#C0C0C0" stroke="none" d="M 255 280 C 255 270.6111584 277.6096176 263 305.5 263 C 333.3903824 263 356 270.6111584 356 280 C 356 289.3888416 333.3903824 297 305.5 297 C 277.6096176 297 255 289.3888416 255 280 Z" opacity="0.2"/></g><g transform="translate(-30,-38) scale(1,1)"><path fill="#ffc1ad" stroke="none" d="M 248 273 C 248 263.6111584 270.6096176 256 298.5 256 C 326.3903824 256 349 263.6111584 349 273 C 349 282.3888416 326.3903824 290 298.5 290 C 270.6096176 290 248 282.3888416 248 273 Z"/></g><g transform="translate(-30,-38) scale(1,1)"><path fill="none" stroke="#000000" d="M 248 273 C 248 263.6111584 270.6096176 256 298.5 256 C 326.3903824 256 349 263.6111584 349 273 C 349 282.3888416 326.3903824 290 298.5 290 C 270.6096176 290 248 282.3888416 248 273 Z" stroke-miterlimit="10"/></g><g transform="translate(-30,-38) scale(1,1)"><g><path fill="none" stroke="none"/><text fill="#000000" stroke="none" font-family="Arial" font-size="13px" font-style="normal" font-weight="bold" text-decoration="none" x="282.595947265625" y="280">Login</text></g></g><g transform="translate(-30,-38) scale(1,1)"><path fill="#C0C0C0" stroke="none" d="M 567 328 C 567 318.6111584 592.743624 311 624.5 311 C 656.256376 311 682 318.6111584 682 328 C 682 337.3888416 656.256376 345 624.5 345 C 592.743624 345 567 337.3888416 567 328 Z" opacity="0.2"/></g><g transform="translate(-30,-38) scale(1,1)"><path fill="#ffc1ad" stroke="none" d="M 560 321 C 560 311.6111584 585.743624 304 617.5 304 C 649.256376 304 675 311.6111584 675 321 C 675 330.3888416 649.256376 338 617.5 338 C 585.743624 338 560 330.3888416 560 321 Z"/></g><g transform="translate(-30,-38) scale(1,1)"><path fill="none" stroke="#000000" d="M 560 321 C 560 311.6111584 585.743624 304 617.5 304 C 649.256376 304 675 311.6111584 675 321 C 675 330.3888416 649.256376 338 617.5 338 C 585.743624 338 560 330.3888416 560 321 Z" stroke-miterlimit="10"/></g><g transform="translate(-30,-38) scale(1,1)"><g><path fill="none" stroke="none"/><text fill="#000000" stroke="none" font-family="Arial" font-size="13px" font-style="normal" font-weight="bold" text-decoration="none" x="584.62548828125" y="328">Editar perfil</text></g></g><g transform="translate(-30,-38) scale(1,1)"><path fill="#d8e5ff" stroke="none" d="M 80.24162571022727 505.68 C 80.24162571022727 500.886167936 84.12746803517273 497 88.9208984375 497 C 93.71432883982727 497 97.60017116477273 500.886167936 97.60017116477273 505.68 C 97.60017116477273 510.473832064 93.71432883982727 514.36 88.9208984375 514.36 C 84.12746803517273 514.36 80.24162571022727 510.473832064 80.24162571022727 505.68 Z"/></g><g transform="translate(-30,-38) scale(1,1)"><path fill="none" stroke="#000000" d="M 80.24162571022727 505.68 C 80.24162571022727 500.886167936 84.12746803517273 497 88.9208984375 497 C 93.71432883982727 497 97.60017116477273 500.886167936 97.60017116477273 505.68 C 97.60017116477273 510.473832064 93.71432883982727 514.36 88.9208984375 514.36 C 84.12746803517273 514.36 80.24162571022727 510.473832064 80.24162571022727 505.68 Z" stroke-miterlimit="10"/></g><g transform="translate(-30,-38) scale(1,1)"><path fill="none" stroke="#000000" d="M 88.9208984375 514.36 L 88.9208984375 531.64" stroke-miterlimit="10"/></g><g transform="translate(-30,-38) scale(1,1)"><path fill="none" stroke="#000000" d="M 79.73108025568182 520.84 L 98.11071661931818 520.84" stroke-miterlimit="10"/></g><g transform="translate(-30,-38) scale(1,1)"><path fill="none" stroke="#000000" d="M 88.9208984375 531.64 L 76.15726207386363 549" stroke-miterlimit="10"/></g><g transform="translate(-30,-38) scale(1,1)"><path fill="none" stroke="#000000" d="M 88.9208984375 531.64 L 101.68453480113637 549" stroke-miterlimit="10"/></g><g transform="translate(-30,-38) scale(1,1)"><g><path fill="none" stroke="none"/><text fill="#000000" stroke="none" font-family="Arial" font-size="13px" font-style="normal" font-weight="bold" text-decoration="none" x="48.82275390625" y="569.5">Administrador</text></g></g><g transform="translate(-30,-38) scale(1,1)"><path fill="none" stroke="#000000" d="M 89 495 L 91 376" stroke-miterlimit="10"/></g><g transform="translate(-30,-38) scale(1,1)"><path fill="#FFFFFF" stroke="none" d="M 99.07629243762857 396.46395612929973 L 91 376 L 82.24059900056095 396.1810032984246"/></g><g transform="translate(-30,-38) scale(1,1)"><path fill="none" stroke="#000000" d="M 99.07629243762857 396.46395612929973 L 91 376 L 82.24059900056095 396.1810032984246 L 99.07629243762857 396.46395612929973" stroke-miterlimit="10"/></g><g transform="translate(-30,-38) scale(1,1)"><path fill="#C0C0C0" stroke="none" d="M 279 363 C 279 347.5360256 324.4430928 335 380.5 335 C 436.5569072 335 482 347.5360256 482 363 C 482 378.4639744 436.5569072 391 380.5 391 C 324.4430928 391 279 378.4639744 279 363 Z" opacity="0.2"/></g><g transform="translate(-30,-38) scale(1,1)"><path fill="#ffa182" stroke="none" d="M 272 356 C 272 340.5360256 317.4430928 328 373.5 328 C 429.5569072 328 475 340.5360256 475 356 C 475 371.4639744 429.5569072 384 373.5 384 C 317.4430928 384 272 371.4639744 272 356 Z"/></g><g transform="translate(-30,-38) scale(1,1)"><path fill="none" stroke="#000000" d="M 272 356 C 272 340.5360256 317.4430928 328 373.5 328 C 429.5569072 328 475 340.5360256 475 356 C 475 371.4639744 429.5569072 384 373.5 384 C 317.4430928 384 272 371.4639744 272 356 Z" stroke-miterlimit="10"/></g><g transform="translate(-30,-38) scale(1,1)"><g><path fill="none" stroke="none"/><text fill="#000000" stroke="none" font-family="Arial" font-size="13px" font-style="normal" font-weight="bold" text-decoration="none" x="317.85009765625" y="363">Pantalla de usuario</text></g></g><g transform="translate(-30,-38) scale(1,1)"><path fill="#C0C0C0" stroke="none" d="M 399 80 C 399 70.6111584 421.6096176 63 449.5 63 C 477.3903824 63 500 70.6111584 500 80 C 500 89.3888416 477.3903824 97 449.5 97 C 421.6096176 97 399 89.3888416 399 80 Z" opacity="0.2"/></g><g transform="translate(-30,-38) scale(1,1)"><path fill="#e2e2e2" stroke="none" d="M 392 73 C 392 63.6111584 414.6096176 56 442.5 56 C 470.3903824 56 493 63.6111584 493 73 C 493 82.3888416 470.3903824 90 442.5 90 C 414.6096176 90 392 82.3888416 392 73 Z"/></g><g transform="translate(-30,-38) scale(1,1)"><path fill="none" stroke="#000000" d="M 392 73 C 392 63.6111584 414.6096176 56 442.5 56 C 470.3903824 56 493 63.6111584 493 73 C 493 82.3888416 470.3903824 90 442.5 90 C 414.6096176 90 392 82.3888416 392 73 Z" stroke-miterlimit="10"/></g><g transform="translate(-30,-38) scale(1,1)"><g><path fill="none" stroke="none"/><text fill="#000000" stroke="none" font-family="Arial" font-size="13px" font-style="normal" font-weight="bold" text-decoration="none" x="424.18701171875" y="80">Ayuda</text></g></g><g transform="translate(-30,-38) scale(1,1)"><path fill="none" stroke="#000000" d="M 404 91 L 346 119" stroke-miterlimit="10" stroke-dasharray="3"/></g><g transform="translate(-30,-38) scale(1,1)"><path fill="none" stroke="#000000" d="M 353.3219295608469 110.79089849581598 L 346 119 L 356.9820973849023 118.37267470278786" stroke-miterlimit="10"/></g><g transform="translate(-30,-38) scale(1,1)"><g><path fill="none" stroke="none"/><text fill="#000000" stroke="none" font-family="Arial" font-size="13px" font-style="normal" font-weight="normal" text-decoration="none" x="374.5" y="116.5">«extend»</text></g></g><g transform="translate(-30,-38) scale(1,1)"><path fill="none" stroke="#000000" d="M 366 191 L 327 155" stroke-miterlimit="10" stroke-dasharray="3"/></g><g transform="translate(-30,-38) scale(1,1)"><path fill="none" stroke="#000000" d="M 337.32280062801857 158.79997199913095 L 327 155 L 331.6123363560042 164.98630829381318" stroke-miterlimit="10"/></g><g transform="translate(-30,-38) scale(1,1)"><g><path fill="none" stroke="none"/><text fill="#000000" stroke="none" font-family="Arial" font-size="13px" font-style="normal" font-weight="normal" text-decoration="none" x="351.5" y="179.5">«extend»</text></g></g><g transform="translate(-30,-38) scale(1,1)"><path fill="none" stroke="#000000" d="M 361 227 L 322 255" stroke-miterlimit="10" stroke-dasharray="3"/></g><g transform="translate(-30,-38) scale(1,1)"><path fill="none" stroke="#000000" d="M 327.80036267477044 245.65356790849418 L 322 255 L 332.71040129247484 252.49255026886817" stroke-miterlimit="10"/></g><g transform="translate(-30,-38) scale(1,1)"><g><path fill="none" stroke="none"/><text fill="#000000" stroke="none" font-family="Arial" font-size="13px" font-style="normal" font-weight="normal" text-decoration="none" x="342.5" y="252.5">«include»</text></g></g><g transform="translate(-30,-38) scale(1,1)"><path fill="#C0C0C0" stroke="none" d="M 775 216 C 775 206.6111584 803.4299152 199 838.5 199 C 873.5700848 199 902 206.6111584 902 216 C 902 225.3888416 873.5700848 233 838.5 233 C 803.4299152 233 775 225.3888416 775 216 Z" opacity="0.2"/></g><g transform="translate(-30,-38) scale(1,1)"><path fill="#ffffff" stroke="none" d="M 768 209 C 768 199.6111584 796.4299152 192 831.5 192 C 866.5700848 192 895 199.6111584 895 209 C 895 218.3888416 866.5700848 226 831.5 226 C 796.4299152 226 768 218.3888416 768 209 Z"/></g><g transform="translate(-30,-38) scale(1,1)"><path fill="none" stroke="#000000" d="M 768 209 C 768 199.6111584 796.4299152 192 831.5 192 C 866.5700848 192 895 199.6111584 895 209 C 895 218.3888416 866.5700848 226 831.5 226 C 796.4299152 226 768 218.3888416 768 209 Z" stroke-miterlimit="10"/></g><g transform="translate(-30,-38) scale(1,1)"><g><path fill="none" stroke="none"/><text fill="#000000" stroke="none" font-family="Arial" font-size="13px" font-style="normal" font-weight="bold" text-decoration="none" x="794.04248046875" y="216">Validar datos</text></g></g><g transform="translate(-30,-38) scale(1,1)"><path fill="#C0C0C0" stroke="none" d="M 527 216 C 527 206.6111584 568.1897984 199 619 199 C 669.8102016 199 711 206.6111584 711 216 C 711 225.3888416 669.8102016 233 619 233 C 568.1897984 233 527 225.3888416 527 216 Z" opacity="0.2"/></g><g transform="translate(-30,-38) scale(1,1)"><path fill="#ffffff" stroke="none" d="M 520 209 C 520 199.6111584 561.1897984 192 612 192 C 662.8102016 192 704 199.6111584 704 209 C 704 218.3888416 662.8102016 226 612 226 C 561.1897984 226 520 218.3888416 520 209 Z"/></g><g transform="translate(-30,-38) scale(1,1)"><path fill="none" stroke="#000000" d="M 520 209 C 520 199.6111584 561.1897984 192 612 192 C 662.8102016 192 704 199.6111584 704 209 C 704 218.3888416 662.8102016 226 612 226 C 561.1897984 226 520 218.3888416 520 209 Z" stroke-miterlimit="10"/></g><g transform="translate(-30,-38) scale(1,1)"><g><path fill="none" stroke="none"/><text fill="#000000" stroke="none" font-family="Arial" font-size="13px" font-style="normal" font-weight="bold" text-decoration="none" x="555.635986328125" y="216">Selección intereses</text></g></g><g transform="translate(-30,-38) scale(1,1)"><path fill="none" stroke="#000000" d="M 128 149 L 239 142" stroke-miterlimit="10"/></g><g transform="translate(-30,-38) scale(1,1)"><path fill="none" stroke="#000000" d="M 347 327 L 314 291" stroke-miterlimit="10" stroke-dasharray="3"/></g><g transform="translate(-30,-38) scale(1,1)"><path fill="none" stroke="#000000" d="M 323.97023313500637 295.6469830248906 L 314 291 L 317.76410625081496 301.3359326687327" stroke-miterlimit="10"/></g><g transform="translate(-30,-38) scale(1,1)"><g><path fill="none" stroke="none"/><text fill="#000000" stroke="none" font-family="Arial" font-size="13px" font-style="normal" font-weight="normal" text-decoration="none" x="271.5" y="324.5">«extend»</text></g></g><g transform="translate(-30,-38) scale(1,1)"><path fill="none" stroke="#000000" d="M 452 209 L 519 209" stroke-miterlimit="10" stroke-dasharray="3"/></g><g transform="translate(-30,-38) scale(1,1)"><path fill="none" stroke="#000000" d="M 508.83732514237585 213.209517756016 L 519 209 L 508.83732514237585 204.790482243984" stroke-miterlimit="10"/></g><g transform="translate(-30,-38) scale(1,1)"><g><path fill="none" stroke="none"/><text fill="#000000" stroke="none" font-family="Arial" font-size="13px" font-style="normal" font-weight="normal" text-decoration="none" x="455.5" y="203.5">«include»</text></g></g><g transform="translate(-30,-38) scale(1,1)"><path fill="none" stroke="#000000" d="M 705 209 L 767 209" stroke-miterlimit="10" stroke-dasharray="3"/></g><g transform="translate(-30,-38) scale(1,1)"><path fill="none" stroke="#000000" d="M 756.8373251423759 213.209517756016 L 767 209 L 756.8373251423758 204.790482243984" stroke-miterlimit="10"/></g><g transform="translate(-30,-38) scale(1,1)"><g><path fill="none" stroke="none"/><text fill="#000000" stroke="none" font-family="Arial" font-size="13px" font-style="normal" font-weight="normal" text-decoration="none" x="703.5" y="203.5">«include»</text></g></g><g transform="translate(-30,-38) scale(1,1)"><path fill="none" stroke="#000000" d="M 122 326 L 247 288" stroke-miterlimit="10"/></g><g transform="translate(-30,-38) scale(1,1)"><path fill="#C0C0C0" stroke="none" d="M 199 72 C 199 62.6111584 227.6537728 55 263 55 C 298.3462272 55 327 62.6111584 327 72 C 327 81.3888416 298.3462272 89 263 89 C 227.6537728 89 199 81.3888416 199 72 Z" opacity="0.2"/></g><g transform="translate(-30,-38) scale(1,1)"><path fill="#e2e2e2" stroke="none" d="M 192 65 C 192 55.6111584 220.6537728 48 256 48 C 291.3462272 48 320 55.6111584 320 65 C 320 74.3888416 291.3462272 82 256 82 C 220.6537728 82 192 74.3888416 192 65 Z"/></g><g transform="translate(-30,-38) scale(1,1)"><path fill="none" stroke="#000000" d="M 192 65 C 192 55.6111584 220.6537728 48 256 48 C 291.3462272 48 320 55.6111584 320 65 C 320 74.3888416 291.3462272 82 256 82 C 220.6537728 82 192 74.3888416 192 65 Z" stroke-miterlimit="10"/></g><g transform="translate(-30,-38) scale(1,1)"><g><path fill="none" stroke="none"/><text fill="#000000" stroke="none" font-family="Arial" font-size="13px" font-style="normal" font-weight="bold" text-decoration="none" x="218.06005859375" y="72">Presentación</text></g></g><g transform="translate(-30,-38) scale(1,1)"><path fill="none" stroke="#000000" d="M 269 83 L 295 119" stroke-miterlimit="10" stroke-dasharray="3"/></g><g transform="translate(-30,-38) scale(1,1)"><path fill="none" stroke="#000000" d="M 285.6372812626869 113.22596347032984 L 295 119 L 292.4624184754521 108.29669770555492" stroke-miterlimit="10"/></g><g transform="translate(-30,-38) scale(1,1)"><g><path fill="none" stroke="none"/><text fill="#000000" stroke="none" font-family="Arial" font-size="13px" font-style="normal" font-weight="normal" text-decoration="none" x="279.5" y="100.5">«extend»</text></g></g><g transform="translate(-30,-38) scale(1,1)"><path fill="none" stroke="#000000" d="M 613 227 L 616 303" stroke-miterlimit="10" stroke-dasharray="3"/></g><g transform="translate(-30,-38) scale(1,1)"><path fill="none" stroke="#000000" d="M 611.3929119460315 293.0112693667823 L 616 303 L 619.8053959617093 292.6791976293214" stroke-miterlimit="10"/></g><g transform="translate(-30,-38) scale(1,1)"><g><path fill="none" stroke="none"/><text fill="#000000" stroke="none" font-family="Arial" font-size="13px" font-style="normal" font-weight="normal" text-decoration="none" x="616.5" y="269.5">«extend»</text></g></g><g transform="translate(-30,-38) scale(1,1)"><path fill="none" stroke="#000000" d="M 559 329 L 476 341" stroke-miterlimit="10" stroke-dasharray="3"/></g><g transform="translate(-30,-38) scale(1,1)"><path fill="none" stroke="#000000" d="M 485.4557546977371 335.3796171752965 L 476 341 L 486.6604390762187 343.71201745979425" stroke-miterlimit="10"/></g><g transform="translate(-30,-38) scale(1,1)"><g><path fill="none" stroke="none"/><text fill="#000000" stroke="none" font-family="Arial" font-size="13px" font-style="normal" font-weight="normal" text-decoration="none" x="488.5" y="325.5">«extend»</text></g></g><g transform="translate(-30,-38) scale(1,1)"><path fill="#C0C0C0" stroke="none" d="M 431 440 C 431 430.6111584 473.532944 423 526 423 C 578.467056 423 621 430.6111584 621 440 C 621 449.3888416 578.467056 457 526 457 C 473.532944 457 431 449.3888416 431 440 Z" opacity="0.2"/></g><g transform="translate(-30,-38) scale(1,1)"><path fill="#ffc1ad" stroke="none" d="M 424 433 C 424 423.6111584 466.532944 416 519 416 C 571.467056 416 614 423.6111584 614 433 C 614 442.3888416 571.467056 450 519 450 C 466.532944 450 424 442.3888416 424 433 Z"/></g><g transform="translate(-30,-38) scale(1,1)"><path fill="none" stroke="#000000" d="M 424 433 C 424 423.6111584 466.532944 416 519 416 C 571.467056 416 614 423.6111584 614 433 C 614 442.3888416 571.467056 450 519 450 C 466.532944 450 424 442.3888416 424 433 Z" stroke-miterlimit="10"/></g><g transform="translate(-30,-38) scale(1,1)"><g><path fill="none" stroke="none"/><text fill="#000000" stroke="none" font-family="Arial" font-size="13px" font-style="normal" font-weight="bold" text-decoration="none" x="461.19189453125" y="440">Gestionar contactos</text></g></g><g transform="translate(-30,-38) scale(1,1)"><path fill="none" stroke="#000000" d="M 485 415 L 428 385" stroke-miterlimit="10" stroke-dasharray="3"/></g><g transform="translate(-30,-38) scale(1,1)"><path fill="none" stroke="#000000" d="M 438.9537040484649 386.0081505932372 L 428 385 L 435.0325682908448 393.4583085327153" stroke-miterlimit="10"/></g><g transform="translate(-30,-38) scale(1,1)"><g><path fill="none" stroke="none"/><text fill="#000000" stroke="none" font-family="Arial" font-size="13px" font-style="normal" font-weight="normal" text-decoration="none" x="399.5" y="412.5">«extend»</text></g></g><g transform="translate(-30,-38) scale(1,1)"><path fill="#C0C0C0" stroke="none" d="M 663 384 C 663 374.6111584 702.17508 367 750.5 367 C 798.82492 367 838 374.6111584 838 384 C 838 393.3888416 798.82492 401 750.5 401 C 702.17508 401 663 393.3888416 663 384 Z" opacity="0.2"/></g><g transform="translate(-30,-38) scale(1,1)"><path fill="#ffe2d8" stroke="none" d="M 656 377 C 656 367.6111584 695.17508 360 743.5 360 C 791.82492 360 831 367.6111584 831 377 C 831 386.3888416 791.82492 394 743.5 394 C 695.17508 394 656 386.3888416 656 377 Z"/></g><g transform="translate(-30,-38) scale(1,1)"><path fill="none" stroke="#000000" d="M 656 377 C 656 367.6111584 695.17508 360 743.5 360 C 791.82492 360 831 367.6111584 831 377 C 831 386.3888416 791.82492 394 743.5 394 C 695.17508 394 656 386.3888416 656 377 Z" stroke-miterlimit="10"/></g><g transform="translate(-30,-38) scale(1,1)"><g><path fill="none" stroke="none"/><text fill="#000000" stroke="none" font-family="Arial" font-size="13px" font-style="normal" font-weight="bold" text-decoration="none" x="690.754150390625" y="384">Buscar por interés</text></g></g><g transform="translate(-30,-38) scale(1,1)"><path fill="none" stroke="#000000" d="M 671 395 L 591 415" stroke-miterlimit="10" stroke-dasharray="3"/></g><g transform="translate(-30,-38) scale(1,1)"><path fill="none" stroke="#000000" d="M 599.8382847744828 408.4513572211376 L 591 415 L 601.8802008145965 416.61902138159263" stroke-miterlimit="10"/></g><g transform="translate(-30,-38) scale(1,1)"><g><path fill="none" stroke="none"/><text fill="#000000" stroke="none" font-family="Arial" font-size="13px" font-style="normal" font-weight="normal" text-decoration="none" x="635.5" y="419.5">«extend»</text></g></g><g transform="translate(-30,-38) scale(1,1)"><path fill="#C0C0C0" stroke="none" d="M 687 464 C 687 454.6111584 729.532944 447 782 447 C 834.467056 447 877 454.6111584 877 464 C 877 473.3888416 834.467056 481 782 481 C 729.532944 481 687 473.3888416 687 464 Z" opacity="0.2"/></g><g transform="translate(-30,-38) scale(1,1)"><path fill="#ffe2d8" stroke="none" d="M 680 457 C 680 447.6111584 722.532944 440 775 440 C 827.467056 440 870 447.6111584 870 457 C 870 466.3888416 827.467056 474 775 474 C 722.532944 474 680 466.3888416 680 457 Z"/></g><g transform="translate(-30,-38) scale(1,1)"><path fill="none" stroke="#000000" d="M 680 457 C 680 447.6111584 722.532944 440 775 440 C 827.467056 440 870 447.6111584 870 457 C 870 466.3888416 827.467056 474 775 474 C 722.532944 474 680 466.3888416 680 457 Z" stroke-miterlimit="10"/></g><g transform="translate(-30,-38) scale(1,1)"><g><path fill="none" stroke="none"/><text fill="#000000" stroke="none" font-family="Arial" font-size="13px" font-style="normal" font-weight="bold" text-decoration="none" x="717.556884765625" y="464">Iniciar conversación</text></g></g><g transform="translate(-30,-38) scale(1,1)"><path fill="none" stroke="#000000" d="M 679 448 L 615 442" stroke-miterlimit="10" stroke-dasharray="3"/></g><g transform="translate(-30,-38) scale(1,1)"><path fill="none" stroke="#000000" d="M 625.5112262871653 438.7574513203339 L 615 442 L 624.7253875459603 447.1397312265216" stroke-miterlimit="10"/></g><g transform="translate(-30,-38) scale(1,1)"><g><path fill="none" stroke="none"/><text fill="#000000" stroke="none" font-family="Arial" font-size="13px" font-style="normal" font-weight="normal" text-decoration="none" x="619.5" y="464.5">«extend»</text></g></g><g transform="translate(-30,-38) scale(1,1)"><path fill="#C0C0C0" stroke="none" d="M 239 568 C 239 558.6111584 279.294368 551 329 551 C 378.705632 551 419 558.6111584 419 568 C 419 577.3888416 378.705632 585 329 585 C 279.294368 585 239 577.3888416 239 568 Z" opacity="0.2"/></g><g transform="translate(-30,-38) scale(1,1)"><path fill="#adc8ff" stroke="none" d="M 232 561 C 232 551.6111584 272.294368 544 322 544 C 371.705632 544 412 551.6111584 412 561 C 412 570.3888416 371.705632 578 322 578 C 272.294368 578 232 570.3888416 232 561 Z"/></g><g transform="translate(-30,-38) scale(1,1)"><path fill="none" stroke="#000000" d="M 232 561 C 232 551.6111584 272.294368 544 322 544 C 371.705632 544 412 551.6111584 412 561 C 412 570.3888416 371.705632 578 322 578 C 272.294368 578 232 570.3888416 232 561 Z" stroke-miterlimit="10"/></g><g transform="translate(-30,-38) scale(1,1)"><g><path fill="none" stroke="none"/><text fill="#000000" stroke="none" font-family="Arial" font-size="13px" font-style="normal" font-weight="bold" text-decoration="none" x="267.445068359375" y="568">Gestionar usuarios</text></g></g><g transform="translate(-30,-38) scale(1,1)"><path fill="#C0C0C0" stroke="none" d="M 407 656 C 407 646.6111584 429.6096176 639 457.5 639 C 485.3903824 639 508 646.6111584 508 656 C 508 665.3888416 485.3903824 673 457.5 673 C 429.6096176 673 407 665.3888416 407 656 Z" opacity="0.2"/></g><g transform="translate(-30,-38) scale(1,1)"><path fill="#d8e5ff" stroke="none" d="M 400 649 C 400 639.6111584 422.6096176 632 450.5 632 C 478.3903824 632 501 639.6111584 501 649 C 501 658.3888416 478.3903824 666 450.5 666 C 422.6096176 666 400 658.3888416 400 649 Z"/></g><g transform="translate(-30,-38) scale(1,1)"><path fill="none" stroke="#000000" d="M 400 649 C 400 639.6111584 422.6096176 632 450.5 632 C 478.3903824 632 501 639.6111584 501 649 C 501 658.3888416 478.3903824 666 450.5 666 C 422.6096176 666 400 658.3888416 400 649 Z" stroke-miterlimit="10"/></g><g transform="translate(-30,-38) scale(1,1)"><g><path fill="none" stroke="none"/><text fill="#000000" stroke="none" font-family="Arial" font-size="13px" font-style="normal" font-weight="bold" text-decoration="none" x="428.10546875" y="656">Advertir</text></g></g><g transform="translate(-30,-38) scale(1,1)"><path fill="#C0C0C0" stroke="none" d="M 479 568 C 479 558.6111584 501.8334752 551 530 551 C 558.1665248 551 581 558.6111584 581 568 C 581 577.3888416 558.1665248 585 530 585 C 501.8334752 585 479 577.3888416 479 568 Z" opacity="0.2"/></g><g transform="translate(-30,-38) scale(1,1)"><path fill="#d8e5ff" stroke="none" d="M 472 561 C 472 551.6111584 494.8334752 544 523 544 C 551.1665248 544 574 551.6111584 574 561 C 574 570.3888416 551.1665248 578 523 578 C 494.8334752 578 472 570.3888416 472 561 Z"/></g><g transform="translate(-30,-38) scale(1,1)"><path fill="none" stroke="#000000" d="M 472 561 C 472 551.6111584 494.8334752 544 523 544 C 551.1665248 544 574 551.6111584 574 561 C 574 570.3888416 551.1665248 578 523 578 C 494.8334752 578 472 570.3888416 472 561 Z" stroke-miterlimit="10"/></g><g transform="translate(-30,-38) scale(1,1)"><g><path fill="none" stroke="none"/><text fill="#000000" stroke="none" font-family="Arial" font-size="13px" font-style="normal" font-weight="bold" text-decoration="none" x="493.73095703125" y="568">Sancionar</text></g></g><g transform="translate(-30,-38) scale(1,1)"><path fill="#C0C0C0" stroke="none" d="M 231 656 C 231 646.6111584 255.1766208 639 285 639 C 314.8233792 639 339 646.6111584 339 656 C 339 665.3888416 314.8233792 673 285 673 C 255.1766208 673 231 665.3888416 231 656 Z" opacity="0.2"/></g><g transform="translate(-30,-38) scale(1,1)"><path fill="#d8e5ff" stroke="none" d="M 224 649 C 224 639.6111584 248.1766208 632 278 632 C 307.8233792 632 332 639.6111584 332 649 C 332 658.3888416 307.8233792 666 278 666 C 248.1766208 666 224 658.3888416 224 649 Z"/></g><g transform="translate(-30,-38) scale(1,1)"><path fill="none" stroke="#000000" d="M 224 649 C 224 639.6111584 248.1766208 632 278 632 C 307.8233792 632 332 639.6111584 332 649 C 332 658.3888416 307.8233792 666 278 666 C 248.1766208 666 224 658.3888416 224 649 Z" stroke-miterlimit="10"/></g><g transform="translate(-30,-38) scale(1,1)"><g><path fill="none" stroke="none"/><text fill="#000000" stroke="none" font-family="Arial" font-size="13px" font-style="normal" font-weight="bold" text-decoration="none" x="246.56005859375" y="656">Suspender</text></g></g><g transform="translate(-30,-38) scale(1,1)"><path fill="none" stroke="#000000" d="M 139 541 L 231 551" stroke-miterlimit="10"/></g><g transform="translate(-30,-38) scale(1,1)"><path fill="none" stroke="#000000" d="M 471 561 L 413 561" stroke-miterlimit="10" stroke-dasharray="3"/></g><g transform="translate(-30,-38) scale(1,1)"><path fill="none" stroke="#000000" d="M 423.16267485762415 556.790482243984 L 413 561 L 423.16267485762415 565.209517756016" stroke-miterlimit="10"/></g><g transform="translate(-30,-38) scale(1,1)"><g><path fill="none" stroke="none"/><text fill="#000000" stroke="none" font-family="Arial" font-size="13px" font-style="normal" font-weight="normal" text-decoration="none" x="415.5" y="579.5">«extend»</text></g></g><g transform="translate(-30,-38) scale(1,1)"><path fill="none" stroke="#000000" d="M 424 631 L 348 579" stroke-miterlimit="10" stroke-dasharray="3"/></g><g transform="translate(-30,-38) scale(1,1)"><path fill="none" stroke="#000000" d="M 358.7643763229394 581.2645534610914 L 348 579 L 354.0102823844972 588.2128446018916" stroke-miterlimit="10"/></g><g transform="translate(-30,-38) scale(1,1)"><g><path fill="none" stroke="none"/><text fill="#000000" stroke="none" font-family="Arial" font-size="13px" font-style="normal" font-weight="normal" text-decoration="none" x="335.5" y="621.5">«extend»</text></g></g><g transform="translate(-30,-38) scale(1,1)"><path fill="none" stroke="#000000" d="M 287 631 L 313 579" stroke-miterlimit="10" stroke-dasharray="3"/></g><g transform="translate(-30,-38) scale(1,1)"><path fill="none" stroke="#000000" d="M 312.22022077900255 589.9723262969391 L 313 579 L 304.6900064950472 586.2072191549614" stroke-miterlimit="10"/></g><g transform="translate(-30,-38) scale(1,1)"><g><path fill="none" stroke="none"/><text fill="#000000" stroke="none" font-family="Arial" font-size="13px" font-style="normal" font-weight="normal" text-decoration="none" x="245.5" y="596.5">«extend»</text></g></g><g transform="translate(-30,-38) scale(1,1)"><path fill="#C0C0C0" stroke="none" d="M 247 456 C 247 446.6111584 272.2959088 439 303.5 439 C 334.7040912 439 360 446.6111584 360 456 C 360 465.3888416 334.7040912 473 303.5 473 C 272.2959088 473 247 465.3888416 247 456 Z" opacity="0.2"/></g><g transform="translate(-30,-38) scale(1,1)"><path fill="#ffc1ad" stroke="none" d="M 240 449 C 240 439.6111584 265.2959088 432 296.5 432 C 327.7040912 432 353 439.6111584 353 449 C 353 458.3888416 327.7040912 466 296.5 466 C 265.2959088 466 240 458.3888416 240 449 Z"/></g><g transform="translate(-30,-38) scale(1,1)"><path fill="none" stroke="#000000" d="M 240 449 C 240 439.6111584 265.2959088 432 296.5 432 C 327.7040912 432 353 439.6111584 353 449 C 353 458.3888416 327.7040912 466 296.5 466 C 265.2959088 466 240 458.3888416 240 449 Z" stroke-miterlimit="10"/></g><g transform="translate(-30,-38) scale(1,1)"><g><path fill="none" stroke="none"/><text fill="#000000" stroke="none" font-family="Arial" font-size="13px" font-style="normal" font-weight="bold" text-decoration="none" x="263.98095703125" y="456">Incidencias</text></g></g><g transform="translate(-30,-38) scale(1,1)"><path fill="none" stroke="#000000" d="M 311 431 L 349 385" stroke-miterlimit="10" stroke-dasharray="3"/></g><g transform="translate(-30,-38) scale(1,1)"><path fill="none" stroke="#000000" d="M 345.77295811400694 395.51599736905854 L 349 385 L 339.2822037486401 390.1540698498425" stroke-miterlimit="10"/></g><g transform="translate(-30,-38) scale(1,1)"><g><path fill="none" stroke="none"/><text fill="#000000" stroke="none" font-family="Arial" font-size="13px" font-style="normal" font-weight="normal" text-decoration="none" x="270.5" y="404.5">«extend»</text></g></g><g transform="translate(-30,-38) scale(1,1)"><path fill="none" stroke="#000000" d="M 139 514 L 252 467" stroke-miterlimit="10"/></g><g transform="translate(-30,-38) scale(1,1)"><path fill="#C0C0C0" stroke="none" d="M 583 512 C 583 502.6111584 616.57864 495 658 495 C 699.42136 495 733 502.6111584 733 512 C 733 521.3888416 699.42136 529 658 529 C 616.57864 529 583 521.3888416 583 512 Z" opacity="0.2"/></g><g transform="translate(-30,-38) scale(1,1)"><path fill="#ffe2d8" stroke="none" d="M 576 505 C 576 495.6111584 609.57864 488 651 488 C 692.42136 488 726 495.6111584 726 505 C 726 514.3888416 692.42136 522 651 522 C 609.57864 522 576 514.3888416 576 505 Z"/></g><g transform="translate(-30,-38) scale(1,1)"><path fill="none" stroke="#000000" d="M 576 505 C 576 495.6111584 609.57864 488 651 488 C 692.42136 488 726 495.6111584 726 505 C 726 514.3888416 692.42136 522 651 522 C 609.57864 522 576 514.3888416 576 505 Z" stroke-miterlimit="10"/></g><g transform="translate(-30,-38) scale(1,1)"><g><path fill="none" stroke="none"/><text fill="#000000" stroke="none" font-family="Arial" font-size="13px" font-style="normal" font-weight="bold" text-decoration="none" x="606.569580078125" y="512">Añadir-Eliminar</text></g></g><g transform="translate(-30,-38) scale(1,1)"><path fill="none" stroke="#000000" d="M 618 487 L 552 451" stroke-miterlimit="10" stroke-dasharray="3"/></g><g transform="translate(-30,-38) scale(1,1)"><path fill="none" stroke="#000000" d="M 562.9375038130826 452.1709015068763 L 552 451 L 558.9060307198706 459.56193551109817" stroke-miterlimit="10"/></g><g transform="translate(-30,-38) scale(1,1)"><g><path fill="none" stroke="none"/><text fill="#000000" stroke="none" font-family="Arial" font-size="13px" font-style="normal" font-weight="normal" text-decoration="none" x="543.5" y="487.5">«extend»</text></g></g></g></svg>